<?xml version="1.0" encoding="utf-8"?>
<!-- Generator: Adobe Illustrator 25.2.3, SVG Export Plug-In . SVG Version: 6.00 Build 0)  -->
<!DOCTYPE svg PUBLIC "-//W3C//DTD SVG 1.1//EN" "http://www.w3.org/Graphics/SVG/1.1/DTD/svg11.dtd" [
	<!ENTITY ns_extend "http://ns.adobe.com/Extensibility/1.0/">
	<!ENTITY ns_ai "http://ns.adobe.com/AdobeIllustrator/10.0/">
	<!ENTITY ns_graphs "http://ns.adobe.com/Graphs/1.0/">
	<!ENTITY ns_vars "http://ns.adobe.com/Variables/1.0/">
	<!ENTITY ns_imrep "http://ns.adobe.com/ImageReplacement/1.0/">
	<!ENTITY ns_sfw "http://ns.adobe.com/SaveForWeb/1.0/">
	<!ENTITY ns_custom "http://ns.adobe.com/GenericCustomNamespace/1.0/">
	<!ENTITY ns_adobe_xpath "http://ns.adobe.com/XPath/1.0/">
]>
<svg version="1.1" xmlns:x="&ns_extend;" xmlns:i="&ns_ai;" xmlns:graph="&ns_graphs;"
	 xmlns="http://www.w3.org/2000/svg" xmlns:xlink="http://www.w3.org/1999/xlink" x="0px" y="0px" width="750px" height="750px"
	 viewBox="0 0 750 750" enable-background="new 0 0 750 750" xml:space="preserve">
<metadata>
	<sfw  xmlns="&ns_sfw;">
		<slices></slices>
		<sliceSourceBounds  bottomLeftOrigin="true" height="15842.89" width="8403.99" x="-3939.991" y="-6814"></sliceSourceBounds>
	</sfw>
</metadata>
<g id="FILL-BACKGROUND">
	<rect y="0" fill="#FFFFFF" width="750" height="750"/>
</g>
<g id="N-TEXT">
</g>
<g id="N-DIMENSIONS">
</g>
<g id="_x32_D_x24_AG-DIAGRAM">
	<g id="POLYLINE_1439_">
		<g>
			<g>
				<g>
					
						<line fill="none" stroke="#ED26CC" stroke-width="3.25" stroke-linecap="round" stroke-linejoin="round" x1="236.774" y1="645.395" x2="238.774" y2="645.395"/>
					
						<line fill="none" stroke="#ED26CC" stroke-width="3.25" stroke-linecap="round" stroke-linejoin="round" stroke-dasharray="4.0264,7.0462" x1="245.82" y1="645.395" x2="508.039" y2="645.395"/>
					
						<line fill="none" stroke="#ED26CC" stroke-width="3.25" stroke-linecap="round" stroke-linejoin="round" x1="511.562" y1="645.395" x2="513.562" y2="645.395"/>
				</g>
			</g>
		</g>
	</g>
</g>
<g id="_x32_D_x24_AG-GUIDES">
</g>
<g id="_x32_D_x24_AG-DETAILS-DIAGRAM">
</g>
<g id="_x32_D_x24_AG-POP-CULTURE">
	<g id="POLYLINE_2319_">
		
			<path fill="none" stroke="#ED26CC" stroke-width="2.75" stroke-linecap="round" stroke-linejoin="round" stroke-miterlimit="10" d="
			M338.896,234.84c-1.21,8.291-1.705,16.808-0.45,25.121c0.62,4.225,1.88,8.395,3.398,12.381c2.581,6.839,6.05,13.931,6.656,21.283
			c0.401,4.297-0.012,8.662-1.048,12.846c-1.076,4.4-2.877,8.644-4.872,12.699c-4.467,8.975-10.924,19.53-14.465,28.867
			c-1.857,4.711-3.465,9.83-4.818,14.718c-3.076,11.063-26.613,116.279-29.33,127.979c-1.531,7.025-3.416,16.701-4.636,23.794
			c-4.736,28.214-9.895,71.393-16.143,99.071c0,0-0.065,0.285-0.065,0.285s-0.029,0.136-0.029,0.136s-0.026,0.131-0.026,0.131
			s-0.012,0.064-0.012,0.064s-0.011,0.063-0.011,0.063s-0.01,0.062-0.01,0.062l-0.009,0.061c0,0-0.008,0.06-0.008,0.06
			s-0.007,0.059-0.007,0.059c-0.027,0.235-0.036,0.484,0.013,0.718c0.042,0.207,0.134,0.407,0.267,0.57
			c0.155,0.192,0.356,0.346,0.568,0.471c0.53,0.315,1.129,0.5,1.715,0.679c2.193,0.634,4.556,0.924,6.812,1.246
			c7.111,0.939,19.743,1.695,26.803,2.833c0.902,0.166,2.384,0.512,3.283,0.553c0.272,0.006,0.552-0.023,0.802-0.136
			c0.204-0.092,0.378-0.239,0.516-0.414c0.236-0.299,0.39-0.659,0.52-1.015c0.521-1.522,0.72-3.223,0.948-4.814
			c0.462-3.598,0.989-8.602,1.738-12.051c0.721-3.461,1.851-6.983,3.028-10.319c1.382-3.867,3.412-9.301,4.527-13.157
			c0.846-2.853,1.547-5.875,2.059-8.808c2.545-15.148,2.59-33.733,5.307-48.847c0.951-5.601,2.304-11.72,3.672-17.238
			c1.548-6.217,13.653-50.266,15.173-56.077c2.036-7.336,4.395-14.867,7.332-21.894c4.059-9.616,9.134-19.037,14.648-27.895
			c0,0,0.133-0.202,0.133-0.202s0.064-0.095,0.064-0.095s0.063-0.092,0.063-0.092s0.062-0.088,0.062-0.088s0.061-0.084,0.061-0.084
			s0.03-0.04,0.03-0.04s0.03-0.039,0.03-0.039s0.03-0.038,0.03-0.038s0.03-0.037,0.03-0.037l0.029-0.036
			c0,0,0.029-0.035,0.029-0.035s0.029-0.034,0.029-0.034s0.029-0.033,0.029-0.033c0.129-0.141,0.273-0.28,0.446-0.367
			c0.1-0.05,0.21-0.083,0.322-0.087c0.108-0.005,0.216,0.015,0.318,0.049l0.029,0.01l0.029,0.011l0.029,0.012l0.029,0.013
			l0.03,0.014l0.03,0.015l0.03,0.016l0.03,0.016l0.031,0.017l0.031,0.018c0.205,0.124,0.392,0.281,0.566,0.445
			c0.484,0.466,0.905,1.013,1.294,1.56c1.074,1.521,2.03,3.274,2.899,4.926c1.424,2.743,2.884,5.949,4.113,8.797
			c4.866,11.36,8.97,23.705,12.552,35.539c6.196,20.663,11.668,43.359,16.106,64.492c3.136,14.795,9.761,52.372,12.97,67.107
			c1.822,8.866,5.744,23.004,8.026,31.864c0.148,0.44,0.384,0.86,0.739,1.165c0.311,0.274,0.685,0.469,1.064,0.63
			c0.619,0.263,1.288,0.443,1.94,0.604c2.845,0.669,5.869,0.953,8.779,1.203c4.675,0.354,9.579,0.503,14.266,0.385
			c2.076-0.077,4.228-0.147,6.26-0.61c0.838-0.2,1.684-0.473,2.398-0.967c0.389-0.27,0.731-0.616,0.962-1.032
			c0.231-0.41,0.349-0.877,0.395-1.343c0.061-0.62,0.004-1.254-0.089-1.868c-0.156-1.05-0.476-2.171-0.767-3.196l-1.764-5.774
			c-1.572-5.416-2.856-11.331-3.985-16.863c-2.151-10.747-4.89-27.161-6.681-38.03c-3.959-24.847-10.098-62.597-12.799-87.316
			c-1.623-15.338-4.413-47.355-6.826-62.146c-2.075-14.311-9.636-47.225-12.709-61.771c-1.483-7.507-2.854-15.259-3.088-22.917
			c-0.143-5.138,0.247-10.378,1.889-15.277c1.849-5.649,5.309-11.118,7.884-16.453c1.373-2.834,2.572-5.81,3.38-8.857
			c1.327-4.945,1.884-10.122,2.012-15.232c0.152-6.981-0.502-14.039-1.786-20.9"/>
	</g>
	<g id="POLYLINE_2318_">
		
			<path fill="none" stroke="#ED26CC" stroke-width="2.75" stroke-linecap="round" stroke-linejoin="round" stroke-miterlimit="10" d="
			M434.759,383.726c0.844-0.667,1.725-1.327,2.696-1.797c0.753-0.368,1.563-0.623,2.39-0.758c2.211-0.332,4.486-0.109,6.664,0.343
			c0.731,0.164,1.475,0.359,2.169,0.643c0.596,0.242,1.164,0.592,1.573,1.096c0.666,0.822,0.965,1.872,1.225,2.879
			c1.018,4.458,1.144,9.491,1.444,14.057c0.211,4.975,0.396,10.167-1.175,14.956c-1.173,3.454-3.258,6.664-6.145,8.924
			c-1.462,1.14-3.158,1.957-4.9,2.574"/>
	</g>
	<g id="POLYLINE_2317_">
		
			<path fill="none" stroke="#ED26CC" stroke-width="2.75" stroke-linecap="round" stroke-linejoin="round" stroke-miterlimit="10" d="
			M450.896,384.338c0.127-1.048,0.274-2.201,0.337-3.21c0.079-1.223,0.065-2.577,0.035-3.807c-0.917-20.905-5.82-65.92-6.297-86.602
			c-0.215-7.561-0.102-15.568,0.344-23.118c0.655-10.338,2.035-25.081,1.593-35.3c-0.232-5.15-0.702-10.44-2.646-15.262
			c-0.687-1.657-1.593-3.246-2.812-4.57c-2.939-3.211-7.227-4.654-11.296-5.846c-5.177-1.495-11.271-2.855-16.073-5.276
			c-1.208-0.628-2.394-1.357-3.37-2.315c-0.642-0.625-1.161-1.38-1.495-2.213c-0.533-1.278-0.681-2.807-0.889-4.17
			c-0.126-0.798-0.298-1.608-0.671-2.331c-0.46-0.917-1.164-1.689-1.897-2.396l-0.915-0.861"/>
	</g>
	<g id="POLYLINE_2316_">
		
			<path fill="none" stroke="#ED26CC" stroke-width="2.75" stroke-linecap="round" stroke-linejoin="round" stroke-miterlimit="10" d="
			M342.664,274.467c-0.255,7.725-1.602,15.504-3.309,23.033c-1.384,5.812-2.937,11.735-5.484,17.155
			c-5.058,10.443-9.486,22.042-13.358,32.985c-1.78,5.143-3.606,10.736-5.005,15.988c-1.084,3.94-2.059,9.259-2.878,13.294
			c-0.198,0.828-0.374,1.739-0.785,2.489c-0.092,0.156-0.207,0.303-0.358,0.406c-0.162,0.112-0.354,0.17-0.545,0.208
			c-1.762,0.247-3.662,0.305-5.442,0.378c-2.108,0.051-4.291,0.072-6.385-0.186c-0.749-0.102-1.514-0.233-2.206-0.549
			c-0.422-0.193-0.81-0.476-1.087-0.852c-0.315-0.421-0.49-0.931-0.594-1.442c-0.286-1.514-0.156-3.084-0.012-4.607
			c0.576-5.449,2.846-14.941,3.949-20.408c3.008-14.365,6.375-35.016,9.95-49.213c2.313-8.74,5.762-20.937,7.322-29.717
			c3.064-16.374,5.194-35.52,7.085-52.136c0.316-2.44,0.672-4.953,1.418-7.301c0.499-1.564,1.205-3.089,2.245-4.37
			c1.434-1.802,3.501-2.964,5.61-3.808c3.886-1.573,9.508-2.54,13.62-3.481c5.154-1.199,10.424-2.87,14.55-6.308
			c2.672-2.265,4.824-5.158,6.244-8.358c0.183-0.37,0.381-0.747,0.676-1.04c0.192-0.192,0.429-0.338,0.687-0.424
			c0.412-0.136,0.855-0.151,1.285-0.136c1.261,0.065,2.541,0.39,3.765,0.69c2.323,0.598,6.418,1.723,8.72,2.156
			c4.333,0.879,8.84,1.532,13.239,1.968c1.626,0.154,3.445,0.305,5.076,0.36c0.655,0.017,1.341,0.025,1.993-0.053
			c0.551-0.069,1.123-0.195,1.57-0.544c0.313-0.243,0.521-0.601,0.632-0.978c0.174-0.588,0.168-1.215,0.11-1.821
			c-0.072-0.716-0.239-1.435-0.431-2.128c-0.612-2.129-1.677-4.913-2.219-7.056c-1.189-4.669-1.609-9.551-1.663-14.359"/>
	</g>
	<g id="POLYLINE_2315_">
		
			<path fill="none" stroke="#ED26CC" stroke-width="2.75" stroke-linecap="round" stroke-linejoin="round" stroke-miterlimit="10" d="
			M296.118,379.151c-2.098,4.89-3.206,10.355-4.331,15.542c-0.563,2.656-0.962,5.411-0.577,8.12
			c0.291,2.202,1.057,4.324,1.962,6.342c1.46,3.217,3.323,6.291,5.35,9.182c0.935,1.316,1.932,2.646,3.01,3.849
			c0.722,0.798,1.514,1.558,2.426,2.137c1.528,0.976,3.358,1.395,5.155,1.449"/>
	</g>
	<g id="POLYLINE_2314_">
		
			<line fill="none" stroke="#ED26CC" stroke-width="2.75" stroke-linecap="round" stroke-linejoin="round" stroke-miterlimit="10" x1="311.234" y1="379.947" x2="314.144" y2="402.804"/>
	</g>
	<g id="POLYLINE_2313_">
		
			<path fill="none" stroke="#ED26CC" stroke-width="2.75" stroke-linecap="round" stroke-linejoin="round" stroke-miterlimit="10" d="
			M276.65,617.239c-1.275,5.435-2.607,11.109-3.062,16.677c-0.132,1.938-0.174,3.928,0.264,5.832
			c0.31,1.347,0.958,2.653,2.024,3.558c0.896,0.774,2.024,1.227,3.165,1.502c1.962,0.464,4.043,0.519,6.052,0.566
			c4.793-0.078,28.806,0.217,33.062-0.14c0.721-0.085,1.459-0.209,2.114-0.538c1.383-0.685,1.828-2.329,2.058-3.738
			c0.182-1.201,0.204-2.437,0.143-3.649c-0.053-1.019-0.155-2.055-0.487-3.026c-0.436-1.308-1.135-2.532-1.849-3.706
			c-1.96-3.15-4.369-6.311-6.611-9.271"/>
	</g>
	<g id="POLYLINE_2312_">
		
			<path fill="none" stroke="#ED26CC" stroke-width="2.75" stroke-linecap="round" stroke-linejoin="round" stroke-miterlimit="10" d="
			M437.03,614.945c-1.541,5.274-3.006,10.735-3.64,16.199c-0.242,2.232-0.356,4.517-0.029,6.745c0.211,1.396,0.619,2.793,1.4,3.982
			c2.141,3.323,6.505,3.459,10.066,3.516c2.744-0.025,21.322,0.085,23.585-0.083c1.052-0.062,2.131-0.158,3.163-0.379
			c1.272-0.269,2.576-0.776,3.365-1.862c0.875-1.182,1.07-2.71,1.08-4.143c-0.008-1.526-0.172-3.068-0.53-4.552
			c-0.386-1.597-0.95-3.203-1.522-4.742c-1.667-4.435-4.111-9.875-6.046-14.227"/>
	</g>
	<g id="POLYLINE_2311_">
		
			<path fill="none" stroke="#ED26CC" stroke-width="2.75" stroke-linecap="round" stroke-linejoin="round" stroke-miterlimit="10" d="
			M400.645,164.303c-0.011-0.196-0.027-0.4,0.018-0.593c0.017-0.068,0.043-0.137,0.091-0.19c0.055-0.063,0.14-0.089,0.221-0.096
			c0.3-0.015,0.646,0.09,0.944,0.122c0.343,0.048,0.699,0.037,1.029-0.073c0.623-0.204,1.149-0.63,1.595-1.099
			c1.237-1.277,1.825-3.147,2.465-4.768c0.245-0.615,0.539-1.242,0.853-1.825c0.945-1.732,2.111-3.662,2.522-5.603
			c0.258-1.153,0.366-2.376,0.072-3.533c-0.123-0.474-0.326-0.932-0.625-1.322c-0.463-0.611-1.155-1.073-1.926-1.166
			c-0.671-0.087-1.297,0.146-1.832,0.541c-1.124,0.826-2.022,2.183-2.892,3.261c-0.25,0.309-0.513,0.627-0.815,0.888
			c-0.244,0.206-0.65,0.502-0.936,0.211l-0.007-0.008l-0.007-0.008l-0.007-0.008l-0.007-0.008l-0.007-0.008
			c-0.224-0.303-0.298-0.811-0.373-1.179c-0.285-1.673-0.541-3.452-1.304-4.985c-0.645-1.331-1.632-2.471-2.714-3.467
			c-2.438-2.214-5.384-3.844-8.283-5.371c-4.884-2.471-12.818-6.463-17.472-9.184c-0.83-0.447-1.738-0.939-2.606-1.31
			c-1.081-0.468-2.222-0.858-3.403-0.956c-0.725-0.06-1.468,0.004-2.161,0.233c-0.749,0.247-1.432,0.672-2.034,1.177
			c-0.915,0.77-1.666,1.727-2.304,2.733c-0.896,1.426-1.583,2.989-2.104,4.589c-0.875,2.669-1.233,5.498-1.156,8.302
			c0.041,1.726,0.232,3.502,0.486,5.209c0.166,1.147,2.808,15.301,3.115,16.835c0.84,4.218,1.8,8.52,3.534,12.472
			c1.266,2.859,3.009,5.566,5.389,7.623c1.43,1.236,3.104,2.214,4.912,2.776c2.775,0.864,5.78,0.81,8.597,0.167
			c6.739-1.51,12.233-6.523,15.423-12.522"/>
	</g>
	<g id="POLYLINE_2125_">
		<g>
			
				<line fill="none" stroke="#ED26CC" stroke-width="2.75" stroke-linecap="round" stroke-linejoin="round" stroke-miterlimit="10" x1="369.348" y1="186.07" x2="368.725" y2="182.318"/>
		</g>
	</g>
	<g id="POLYLINE_2124_">
		
			<path fill="none" stroke="#ED26CC" stroke-width="2.75" stroke-linecap="round" stroke-linejoin="round" stroke-miterlimit="10" d="
			M356.056,145.362l-0.894-1.823c-0.668-1.387-1.215-2.852-1.464-4.375c-0.507-3.126-0.163-6.388,0.424-9.481
			c1.052-5.183,3.052-10.326,6.534-14.369c3.61-4.179,8.923-6.465,14.241-7.557c4.239-0.865,8.632-1.064,12.941-0.712
			c1.966,0.17,3.953,0.477,5.829,1.106c1.583,0.526,3.095,1.303,4.423,2.315c1.703,1.289,3.115,2.942,4.305,4.707
			c1.42,2.113,2.584,4.422,3.559,6.771c1.571,3.816,2.691,7.842,3.322,11.92c0.554,3.653,0.725,7.412,0.22,11.081"/>
	</g>
	<g id="POLYLINE_1761_">
		
			<path fill="none" stroke="#ED26CC" stroke-width="2.75" stroke-linecap="round" stroke-linejoin="round" stroke-miterlimit="10" d="
			M336.092,204.707c1.077-2.822,3.092-7.858,3.943-10.62c0.672-2.114,1.242-4.326,1.687-6.5c1.846-8.713,2.945-27.762,3.842-36.867
			c0.564-5.498,1.147-11.256,2.412-16.635c1.014-4.337,2.617-8.58,5.022-12.342c1.817-2.865,3.929-5.587,6.286-8.028
			c1.726-1.793,3.616-3.486,5.798-4.704c2.211-1.255,4.654-2.086,7.113-2.7c3.063-0.76,6.268-1.226,9.415-1.448
			c3.648-0.243,7.364-0.182,10.978,0.396c3.418,0.541,6.808,1.624,9.712,3.539c5.944,3.849,9.105,10.606,10.998,17.209
			c1.808,6.289,2.81,12.975,3.669,19.457c0.43,3.516,2.634,23.122,3.182,26.243c0.643,4.223,1.484,8.682,2.495,12.832
			c1.07,4.352,2.402,8.78,4.167,12.903c1.43,3.369,3.275,6.635,5.201,9.743"/>
	</g>
</g>
<g id="_x32_D_x24_AG-OUTLINE">
	<g id="POLYLINE_35_">
		
			<path fill="none" stroke="#ED26CC" stroke-width="3.5" stroke-linecap="round" stroke-linejoin="round" stroke-miterlimit="10" d="
			M437.03,614.945c-1.541,5.274-3.006,10.735-3.64,16.199c-0.242,2.232-0.356,4.517-0.029,6.745c0.211,1.396,0.619,2.793,1.4,3.982
			c2.141,3.323,6.505,3.459,10.066,3.516c2.744-0.025,21.322,0.085,23.585-0.083c1.052-0.062,2.131-0.158,3.163-0.379
			c1.272-0.269,2.576-0.776,3.365-1.862c0.875-1.182,1.07-2.71,1.08-4.143c-0.008-1.526-0.172-3.068-0.53-4.552
			c-0.386-1.597-0.95-3.203-1.522-4.742c-1.667-4.435-4.111-9.875-6.046-14.227c0.832-0.367,1.602-0.967,1.93-1.841
			c0.242-0.625,0.275-1.311,0.233-1.974c-0.098-1.373-0.49-2.748-0.866-4.069l-1.764-5.774c-1.572-5.416-2.856-11.331-3.985-16.863
			c-2.151-10.747-4.89-27.161-6.681-38.03c-3.959-24.847-10.098-62.597-12.799-87.316l-3.288-32.887
			c1.742-0.618,3.437-1.435,4.9-2.574c2.887-2.259,4.972-5.47,6.145-8.924c1.242-3.742,1.363-7.766,1.297-11.676
			c-0.181-4.887-0.42-10.238-1.122-15.075c-0.227-1.369-0.481-2.774-1.024-4.057c0.127-1.048,0.275-2.201,0.337-3.21
			c0.079-1.223,0.065-2.577,0.035-3.807c-0.917-20.904-5.82-65.92-6.297-86.602c-0.181-6.441-0.13-13.4,0.171-19.835
			c0.476-9.734,1.916-24.442,1.845-34.098c-0.007-3.777-0.142-7.686-0.65-11.429c-0.324-2.345-0.794-4.716-1.563-6.958
			c-0.659-1.913-1.549-3.782-2.832-5.358c-2.482-3.075-6.255-4.69-9.933-5.856c-1.93-3.114-3.769-6.372-5.201-9.743
			c-1.765-4.123-3.095-8.549-4.167-12.903c-1.012-4.153-1.849-8.606-2.495-12.832c-0.578-2.988-2.723-22.776-3.182-26.243
			c-0.861-6.484-1.86-13.166-3.669-19.457c-1.893-6.602-5.054-13.361-10.998-17.209c-2.905-1.916-6.294-2.999-9.712-3.539
			c-3.614-0.577-7.33-0.64-10.978-0.396c-3.147,0.223-6.352,0.688-9.415,1.448c-2.459,0.614-4.902,1.445-7.113,2.7
			c-2.182,1.219-4.073,2.911-5.798,4.704c-2.357,2.441-4.47,5.163-6.286,8.028c-2.404,3.763-4.008,8.006-5.022,12.342
			c-1.264,5.376-1.853,11.141-2.412,16.635c-0.893,9.15-1.991,28.039-3.842,36.867c-0.443,2.171-1.016,4.387-1.687,6.5
			c-0.901,2.9-2.871,7.8-3.943,10.62c-2.811,0.825-5.709,1.841-7.909,3.846c-1.516,1.388-2.521,3.248-3.161,5.183
			c-0.806,2.425-1.175,5.03-1.502,7.559c-1.895,16.649-4.017,35.738-7.085,52.136c-1.549,8.739-5.023,21.038-7.322,29.717
			c-2.4,9.042-5.825,28.207-7.662,37.647c-1.117,5.835-3.516,17.534-4.782,23.341c-0.417,2.067-0.883,4.472-1.189,6.553
			c-0.25,1.767-0.478,3.59-0.406,5.376c0.062,1.086,0.211,2.303,1.044,3.087c-2.098,4.89-3.206,10.355-4.331,15.542
			c-0.563,2.656-0.962,5.411-0.577,8.12c0.291,2.202,1.057,4.324,1.962,6.342c1.46,3.217,3.323,6.291,5.35,9.182
			c0.935,1.316,1.932,2.646,3.01,3.849c0.722,0.798,1.514,1.558,2.426,2.137c1.528,0.976,3.358,1.395,5.155,1.449
			c-4.996,21.88-16.35,67.327-19.783,88.756c-4.818,28.695-9.918,71.651-16.285,99.751c-0.077,0.457-0.112,0.964,0.138,1.376
			c0.198,0.331,0.529,0.556,0.865,0.732c0.813,0.41,1.719,0.638,2.601,0.852c-1.275,5.435-2.607,11.109-3.062,16.677
			c-0.132,1.938-0.174,3.928,0.264,5.832c0.31,1.347,0.958,2.653,2.024,3.558c0.896,0.774,2.024,1.227,3.165,1.502
			c1.962,0.464,4.043,0.519,6.052,0.566c4.793-0.078,28.806,0.217,33.062-0.14c0.721-0.085,1.459-0.209,2.114-0.538
			c1.383-0.685,1.828-2.329,2.058-3.738c0.182-1.201,0.204-2.437,0.143-3.649c-0.053-1.019-0.155-2.055-0.487-3.026
			c-0.436-1.308-1.135-2.532-1.849-3.706c-1.96-3.15-4.369-6.311-6.611-9.271c0.269-0.208,0.447-0.502,0.592-0.805
			c0.444-0.979,0.636-2.087,0.826-3.141c0.827-5.355,1.253-11.625,2.674-16.836c2.146-8.163,6.042-16.444,7.964-24.67
			c1.407-5.835,2.107-12.047,2.669-18.023c1.009-11.805,1.968-27.807,4.293-39.272c1.999-11.99,13.487-51.843,16.706-64.226
			c1.406-5.284,3.115-11.49,4.833-16.666c3.443-10.692,8.378-21.001,13.909-30.762c1.423-2.469,3.386-5.878,4.949-8.275
			c0,0,0.063-0.092,0.063-0.092s0.062-0.088,0.062-0.088s0.061-0.084,0.061-0.084l0.03-0.04c0.098-0.126,0.206-0.262,0.322-0.373
			c0.142-0.139,0.306-0.26,0.5-0.31c0.154-0.039,0.32-0.026,0.471,0.026l0.029,0.01l0.029,0.011l0.029,0.012l0.029,0.013l0.03,0.014
			l0.03,0.015l0.03,0.016l0.03,0.016l0.031,0.017l0.031,0.018c0.471,0.291,0.849,0.718,1.202,1.138
			c1.046,1.282,1.914,2.797,2.725,4.239c5.036,9.397,8.861,19.809,12.373,29.871c8.777,25.931,15.56,53.72,21.229,80.511
			c3.58,16.913,9.975,54.083,13.794,70.82c1.521,6.984,5.332,20.791,7.095,27.811c0.086,0.299,0.192,0.613,0.346,0.886
			c0.12,0.216,0.275,0.414,0.457,0.581c0.25,0.231,0.546,0.407,0.851,0.554C435.52,614.555,436.28,614.759,437.03,614.945z"/>
	</g>
	<g id="POLYLINE_34_">
		
			<path fill="none" stroke="#ED26CC" stroke-width="3.5" stroke-linecap="round" stroke-linejoin="round" stroke-miterlimit="10" d="
			M311.234,379.947c0.145-0.052,0.28-0.133,0.389-0.242c0.194-0.195,0.315-0.451,0.421-0.702c0.182-0.447,0.314-0.943,0.431-1.412
			c0.432-1.797,1.346-6.82,1.753-8.632c1.305-6.103,3.259-12.34,5.238-18.261c3.342-9.784,7.324-20.325,11.489-29.783
			c1.014-2.291,2.843-5.989,3.819-8.294c0.855-2.019,1.602-4.191,2.24-6.289c1.757-5.821,3.15-11.996,4.173-17.99
			c0.76-4.559,1.337-9.252,1.477-13.874c1.886,4.844,4.275,10.228,5.274,15.314c0.796,3.936,0.916,8.01,0.398,11.99
			c-0.556,4.355-1.866,8.623-3.578,12.658c-2.736,6.57-8.405,16.253-11.661,22.648c-2.195,4.274-4.245,8.827-5.889,13.341
			c-2.7,7.305-4.771,15.251-6.562,22.836l-6.502,29.55L311.234,379.947z"/>
	</g>
</g>
</svg>
